<?xml version="1.0" encoding="UTF-8" standalone="no"?>
<svg width="31px" height="47px" viewBox="0 0 31 47" version="1.1" xmlns="http://www.w3.org/2000/svg" xmlns:xlink="http://www.w3.org/1999/xlink" xmlns:sketch="http://www.bohemiancoding.com/sketch/ns">
    <!-- Generator: Sketch 3.3.2 (12043) - http://www.bohemiancoding.com/sketch -->
    <title>Oval 1 + noun_21</title>
    <desc>Created with Sketch.</desc>
    <defs></defs>
    <g id="Page-1" stroke="none" stroke-width="1" fill="none" fill-rule="evenodd" sketch:type="MSPage">
        <g id="Oval-1-+-noun_21" sketch:type="MSLayerGroup">
            <path d="M25.5909707,26.4500475 C28.6065087,23.6643826 30.4948888,19.6764409 30.4948888,15.2474444 C30.4948888,6.82651338 23.6683754,1.42108547e-14 15.2474444,1.42108547e-14 C6.82651338,1.42108547e-14 0,6.82651338 0,15.2474444 C0,20.0942929 2.26150533,24.4129385 5.78687637,27.2057416 L15.5,46.6319889 L25.5909707,26.4500475 Z" id="Oval-1" fill="#EAB445" sketch:type="MSShapeGroup"></path>
            <g id="noun_21" transform="translate(6.000000, 8.000000)" fill="#FFFFFF" sketch:type="MSShapeGroup">
                <path d="M15.28531,16.5256733 L10.71733,16.5256733 L10.71733,10.0769604 L18.96219,0 L0,0 L8.39553,10.0271089 L8.39553,16.5256733 L3.91514,16.5256733 C2.36645,16.5292475 2.36645,18.8118812 3.91514,18.8118812 L15.28531,18.8118812 C16.8245,18.8118812 16.81177,16.5290594 15.28531,16.5256733 L15.28531,16.5256733 Z M9.52508,5.65391089 C9.52356,4.85233663 10.1821,4.20012871 10.99378,4.19975248 C11.80622,4.20012871 12.46514,4.85233663 12.46153,5.65391089 C12.46533,6.46131683 11.80641,7.1129604 10.99378,7.10769307 C10.18191,7.1129604 9.52356,6.46150495 9.52508,5.65391089 L9.52508,5.65391089 Z" id="Shape"></path>
            </g>
        </g>
    </g>
</svg>