<?xml version="1.0" encoding="UTF-8" standalone="no"?>
<svg width="31px" height="45px" viewBox="0 0 31 45" version="1.1" xmlns="http://www.w3.org/2000/svg" xmlns:xlink="http://www.w3.org/1999/xlink" xmlns:sketch="http://www.bohemiancoding.com/sketch/ns">
    <!-- Generator: Sketch 3.3.2 (12043) - http://www.bohemiancoding.com/sketch -->
    <title>Oval 1 + noun_26309_cc + noun_9159_cc</title>
    <desc>Created with Sketch.</desc>
    <defs></defs>
    <g id="Page-1" stroke="none" stroke-width="1" fill="none" fill-rule="evenodd" sketch:type="MSPage">
        <g id="Oval-1-+-noun_26309_cc-+-noun_9159_cc" sketch:type="MSLayerGroup">
            <g id="Oval-1-+-noun_26309_cc" fill="#E32071" sketch:type="MSShapeGroup">
                <path d="M23.3690742,28.1542014 C27.6505602,25.4543917 30.4948888,20.6830823 30.4948888,15.2474444 C30.4948888,6.82651338 23.6683754,0 15.2474444,0 C6.82651338,0 0,6.82651338 0,15.2474444 C0,20.6830823 2.84432858,25.4543917 7.12581463,28.1542014 L15.2474444,44.3974609 L23.3690742,28.1542014 Z" id="Oval-1"></path>
            </g>
            <g id="noun_9159_cc" transform="translate(16.500000, 16.500000) scale(-1, 1) translate(-16.500000, -16.500000) translate(7.000000, 8.000000)" fill="#FFFFFF" sketch:type="MSShapeGroup">
                <g id="Group">
                    <g id="Shape">
                        <g>
                            <path d="M18.4659848,1.07636842 C18.4659848,0.269315789 6.97674242,0.47122807 5.8085303,0.874754386 C5.61363636,1.07636842 5.61363636,1.68150877 5.61363636,2.4885614 C5.61363636,4.10266667 5.4190303,3.49692982 5.4190303,3.49692982 C4.44542424,2.89178947 1.13510606,1.27798246 0.550712121,5.71587719 C-0.228287879,12.373614 7.95034848,14.7941754 7.95034848,14.7941754 C8.33984848,14.9960877 8.33984848,15.1977018 8.53445455,15.6012281 C9.11856061,16.811807 13.8072424,16.3647368 14.5709848,16.2063684 C15.5448788,16.0044561 15.9340909,16.0044561 16.128697,14.9957895 C16.323303,13.9868246 17.297197,13.1800702 18.076197,10.5575965 C18.855197,7.93512281 18.4659848,1.88342105 18.4659848,1.07636842 L18.4659848,1.07636842 Z M1.32971212,6.72514035 C1.32971212,6.12 1.32971212,3.69914035 3.08231818,3.69914035 C4.83492424,3.69884211 5.46969697,5.07017544 5.46969697,5.07017544 C5.85919697,8.90322807 6.22336364,10.2017895 7.1969697,12.8245614 C1.74483333,11.6139825 1.32971212,7.3302807 1.32971212,6.72514035 L1.32971212,6.72514035 Z"></path>
                            <path d="M11.7284697,16.7175614 L11.7284697,16.7175614 C9.72512121,16.7175614 8.59606061,16.3963509 8.27709091,15.7351404 C8.23189394,15.6417895 8.19677273,15.5582807 8.16481818,15.4831228 C8.06924242,15.2573509 8.03498485,15.1765263 7.84268182,15.0724386 C7.30434848,14.9027368 -0.510984848,12.310386 0.264848485,5.68038596 C0.620666667,2.97678947 1.96563636,2.41012281 3.03165152,2.41012281 C3.93156061,2.41012281 4.8110303,2.81275439 5.31280303,3.09191228 C5.32028788,2.95084211 5.32575758,2.75638596 5.32575758,2.4885614 C5.32575758,1.56370175 5.32575758,0.952596491 5.605,0.663596491 L5.65307576,0.613789474 L5.71756061,0.591421053 C6.38515152,0.360877193 9.72857576,0.223087719 12.5754091,0.223087719 C18.7538636,0.223087719 18.7538636,0.736368421 18.7538636,1.07607018 C18.7538636,1.2004386 18.7633636,1.45126316 18.7763182,1.79573684 C18.8500152,3.7674386 19.0227424,8.38457895 18.3514091,10.6455789 C17.8910909,12.1943684 17.3567879,13.1371228 16.9664242,13.8257719 C16.6860303,14.3205614 16.4833636,14.6778596 16.4108182,15.0545439 C16.1928939,16.184 15.6816212,16.2868947 14.8338182,16.4568947 L14.6271212,16.4989474 C14.2600758,16.5752982 13.0325606,16.7175614 11.7284697,16.7175614 L11.7284697,16.7175614 Z M3.03165152,3.00661404 C1.81478788,3.00661404 1.07609091,3.93177193 0.836,5.7564386 C0.0967272727,12.0771579 7.95006061,14.4845965 8.02951515,14.5081579 L8.0790303,14.5278421 C8.47630303,14.7336316 8.57648485,14.9698421 8.69221212,15.2436316 C8.72042424,15.3107368 8.75180303,15.385 8.79210606,15.4682105 C8.86580303,15.6215088 9.29618182,16.1207719 11.7284697,16.1207719 L11.7284697,16.1207719 C12.977,16.1207719 14.1777424,15.9838772 14.5145606,15.914386 L14.7244242,15.8714386 C15.5353788,15.7085965 15.7040758,15.6748947 15.8462879,14.9376316 C15.9378333,14.4625263 16.1727424,14.0485614 16.4698333,13.5239474 C16.8668182,12.8239649 17.3605303,11.9524912 17.800697,10.4705088 C18.4432424,8.3064386 18.2670606,3.59326316 18.2005606,1.819 C18.1904848,1.54670175 18.1827121,1.33107018 18.1792576,1.18761404 C17.8456061,1.03819298 16.3685,0.819578947 12.5751212,0.819578947 C9.67474242,0.819578947 6.6975,0.963631579 5.98384848,1.13363158 C5.90151515,1.33733333 5.90151515,1.97050877 5.90151515,2.4885614 C5.90151515,3.47426316 5.86322727,3.90642105 5.49560606,3.90642105 L5.49560606,3.90642105 C5.43256061,3.90642105 5.2915,3.88464912 5.19419697,3.706 C4.78886364,3.46352632 3.90881818,3.00661404 3.03165152,3.00661404 L3.03165152,3.00661404 Z M7.65642424,13.2316667 L7.13651515,13.1159474 C1.11121212,11.7783158 1.04154545,6.77524561 1.04154545,6.72484211 C1.04154545,3.97710526 2.1510303,3.40059649 3.0820303,3.40059649 C4.99383333,3.40059649 5.69971212,4.87810526 5.72907576,4.94103509 L5.75066667,4.9875614 L5.75584848,5.03885965 C6.1505303,8.92261404 6.51728788,10.1633158 7.46556061,12.717193 L7.65642424,13.2316667 L7.65642424,13.2316667 Z M3.08231818,3.99708772 C2.11043939,3.99708772 1.61759091,4.91478947 1.61759091,6.72484211 C1.61759091,6.76868421 1.6774697,11.0070526 6.73377273,12.4025439 C5.92742424,10.1835965 5.55865152,8.77289474 5.18930303,5.15845614 C5.07328788,4.94610526 4.47795455,3.99708772 3.08231818,3.99708772 L3.08231818,3.99708772 Z"></path>
                        </g>
                    </g>
                </g>
            </g>
        </g>
    </g>
</svg>