<?xml version="1.0" encoding="UTF-8" standalone="no"?>
<svg width="31px" height="47px" viewBox="0 0 31 47" version="1.1" xmlns="http://www.w3.org/2000/svg" xmlns:xlink="http://www.w3.org/1999/xlink" xmlns:sketch="http://www.bohemiancoding.com/sketch/ns">
    <!-- Generator: Sketch 3.3.2 (12043) - http://www.bohemiancoding.com/sketch -->
    <title>Oval 1 + noun_33</title>
    <desc>Created with Sketch.</desc>
    <defs></defs>
    <g id="Page-1" stroke="none" stroke-width="1" fill="none" fill-rule="evenodd" sketch:type="MSPage">
        <g id="Oval-1-+-noun_33" sketch:type="MSLayerGroup">
            <path d="M25.5909707,26.4500475 C28.6065087,23.6643826 30.4948888,19.6764409 30.4948888,15.2474444 C30.4948888,6.82651338 23.6683754,1.42108547e-14 15.2474444,1.42108547e-14 C6.82651338,1.42108547e-14 0,6.82651338 0,15.2474444 C0,20.0942929 2.26150533,24.4129385 5.78687637,27.2057416 L15.5,46.6319889 L25.5909707,26.4500475 Z" id="Oval-1" fill="#88D3DE" sketch:type="MSShapeGroup"></path>
            <g id="noun_33" transform="translate(9.000000, 4.000000)" fill="#FFFFFF" sketch:type="MSShapeGroup">
                <path d="M5.64444444,7.31924752 C5.64044444,8.02346535 4.98288889,8.7810495 4.13066667,8.7810495 L4.13066667,20.7163762 C4.13044444,22.4160396 1.77355556,22.4160396 1.77,20.7163762 L1.77,8.7810495 C0.942888889,8.7810495 0.220666667,8.15372277 0.222222222,7.21970297 L0.222222222,0.642792079 C0.220666667,0.0718811881 1.06377778,0.0498811881 1.06933333,0.665009901 L1.06933333,5.52526733 L1.77,5.52526733 L1.77,0.620356436 C1.77,0.0960594059 2.58155556,0.0620792079 2.58355556,0.642792079 L2.58355556,5.52526733 L3.306,5.52526733 L3.306,0.631465347 C3.31133333,0.0784158416 4.1,0.0564158416 4.09666667,0.653683168 L4.09666667,5.52526733 L4.82,5.52526733 L4.82,0.631465347 C4.81733333,0.0840792079 5.64111111,0.0618613861 5.64466667,0.653683168 L5.64466667,7.31924752 L5.64444444,7.31924752 L5.64444444,7.31924752 Z" id="Shape"></path>
                <path d="M11.9244444,2.17059406 L11.9244444,20.7163762 C11.9275556,22.3731287 9.56622222,22.3485149 9.564,20.7163762 L9.564,13.3533465 L8.31,13.3533465 L8.31,2.17059406 C8.30866667,-0.433029703 11.9275556,-0.433029703 11.9244444,2.17059406 L11.9244444,2.17059406 L11.9244444,2.17059406 Z" id="Shape"></path>
            </g>
        </g>
    </g>
</svg>