<?xml version="1.0" encoding="UTF-8" standalone="no"?>
<svg width="31px" height="47px" viewBox="0 0 31 47" version="1.1" xmlns="http://www.w3.org/2000/svg" xmlns:xlink="http://www.w3.org/1999/xlink" xmlns:sketch="http://www.bohemiancoding.com/sketch/ns">
    <!-- Generator: Sketch 3.3.2 (12043) - http://www.bohemiancoding.com/sketch -->
    <title>Oval 1 + Shape + Rectangle-path</title>
    <desc>Created with Sketch.</desc>
    <defs></defs>
    <g id="Page-1" stroke="none" stroke-width="1" fill="none" fill-rule="evenodd" sketch:type="MSPage">
        <g id="Oval-1-+-Shape-+-Rectangle-path" sketch:type="MSLayerGroup">
            <path d="M25.5909707,26.4500475 C28.6065087,23.6643826 30.4948888,19.6764409 30.4948888,15.2474444 C30.4948888,6.82651338 23.6683754,1.42108547e-14 15.2474444,1.42108547e-14 C6.82651338,1.42108547e-14 0,6.82651338 0,15.2474444 C0,20.0942929 2.26150533,24.4129385 5.78687637,27.2057416 L15.5,46.6319889 L25.5909707,26.4500475 Z" id="Oval-1" fill="#4FC3A1" sketch:type="MSShapeGroup"></path>
            <g id="Shape-+-Rectangle-path" transform="translate(7.000000, 5.000000)" fill="#FFFFFF" sketch:type="MSShapeGroup">
                <path d="M13.0614195,4.60854375 L13.0614195,2.52386534 L10.7641452,0.542388831 L10.7641452,4.60854375 L5.9095277,4.60854375 L5.9095277,0.542388831 L3.61225337,2.52386534 L3.61225337,4.60854375 L0.968220653,4.60854375 L0.968220653,19.2838542 L15.7054522,19.2838542 L15.7054522,4.60854375 L13.0614195,4.60854375 Z" id="Shape"></path>
                <rect id="Rectangle-path" x="6.1695965" y="0.542388831" width="4.16110067" height="1.79571309"></rect>
            </g>
        </g>
    </g>
</svg>